<?xml version="1.0" encoding="UTF-8" standalone="no"?>
<!DOCTYPE svg PUBLIC "-//W3C//DTD SVG 1.1//EN"
"http://www.w3.org/Graphics/SVG/1.1/DTD/svg11.dtd">


<!-- Page 1 -->
<svg x="0" y="0" width="246" height="214" viewBox="0 0 246 214" version="1.1" xmlns="http://www.w3.org/2000/svg" xmlns:xlink="http://www.w3.org/1999/xlink"
style="display: block;margin-left: auto;margin-right: auto;">
<defs>

<style type="text/css"><![CDATA[

.g0_1{
fill: #2F4B9F;
}
.g1_1{
fill: #FFFFFF;
}
.g2_1{
fill: #CD4B27;
}
.g3_1{
fill: none;
stroke: #FFFFFF;
stroke-width: 1.5277778;
stroke-linecap: butt;
stroke-linejoin: miter;
}
.g4_1{
fill: #F08521;
}

]]></style>

</defs>
<path d="M0,0
L0,214
L246,214
L246,0 Z " 
fill="#FFFFFF" stroke="none" />
<path d="M185.7,135.2c0,40.5,-32.8,73.3,-73.3,73.3C72,208.5,39.2,175.7,39.2,135.2C39.2,94.8,72,62,112.4,62c40.5,0,73.3,32.8,73.3,73.2Z" class="g0_1" />
<path d="M29,153.3v-8.1C27.1,145,23.5,145,22,145c-7.6,0,-14.4,0,-14.4,6.9c0,5.2,2.8,7.7,8.6,7.8c5.7,0,9.7,-2.8,12.8,-6.4M17.4,124.5c9.8,0,16.2,3.2,16.2,13.9v22.8c0,1.2,-1,2.3,-2.3,2.3c-1.2,0,-2.3,-1.1,-2.3,-2.3v-2.8c-3.9,4.9,-8.2,5.6,-12.7,5.6C7.1,164,3,161,3,152.1c0,-8.5,7.7,-11.4,15.1,-11.4c3.3,0,7.6,.7,10.2,1.8H29v-4.2c0,-7.2,-5.8,-9.5,-12.5,-9.5c-2.6,0,-4.9,.2,-7.2,.7c-.2,.1,-.5,.1,-.7,.1c-1.2,0,-2,-.9,-2,-2c0,-1.1,.7,-1.8,1.7,-2c3.1,-.7,6.3,-1.1,9.1,-1.1Z" class="g0_1" />
<path d="M51.2,115.8c0,-1.2,1,-2.3,2.3,-2.3c1.2,0,2.3,1.1,2.3,2.3V125h7.5c1.3,0,2.1,.9,2.1,2.2c0,1.3,-.8,2.1,-2.1,2.1H55.8v23c0,5.1,.4,6.9,6.5,6.9h1.1c1.2,0,2.1,.9,2.1,2.1c0,1.1,-.9,2.2,-2.1,2.2h-1c-8.4,0,-11.2,-2.4,-11.2,-11.2v-23H45.5c-1.2,0,-2.1,-.8,-2.1,-2.1c0,-1.3,.9,-2.2,2.1,-2.2h5.7Z" class="g1_1" />
<path d="M73.4,114.2c0,-1.3,1.1,-2.3,2.3,-2.3c1.3,0,2.4,1,2.4,2.3v47c0,1.2,-1.1,2.3,-2.4,2.3c-1.2,0,-2.3,-1.1,-2.3,-2.3Z" class="g1_1" />
<path d="M113.2,153.3v-8.1c-1.9,-.2,-5.5,-.2,-7,-.2c-7.6,0,-14.4,0,-14.4,6.9c0,5.2,2.8,7.7,8.6,7.8c5.7,0,9.7,-2.8,12.8,-6.4M101.5,124.5c9.9,0,16.3,3.2,16.3,13.9v22.8c0,1.2,-1,2.3,-2.3,2.3c-1.2,0,-2.3,-1.1,-2.3,-2.3v-2.8c-3.9,4.9,-8.2,5.6,-12.7,5.6c-9.3,0,-13.3,-3,-13.3,-11.9c0,-8.5,7.7,-11.4,15.1,-11.4c3.3,0,7.5,.7,10.2,1.8h.7v-4.2c0,-7.2,-5.8,-9.5,-12.5,-9.5c-2.6,0,-4.9,.2,-7.2,.7c-.2,.1,-.5,.1,-.7,.1c-1.2,0,-2,-.9,-2,-2c0,-1.1,.7,-1.8,1.7,-2c3.1,-.7,6.3,-1.1,9,-1.1Z" class="g1_1" />
<path d="M140,159.7c7.9,0,9.4,-1.9,9.4,-6.8c0,-8.5,-23.9,-6.1,-23.9,-18.3c0,-7.6,5.8,-10.1,14.7,-10.1c3,0,7.2,.3,10.4,1c.8,.3,1.5,1,1.5,2c0,1.1,-1,2.1,-2.1,2.1c-2.7,-.5,-6.5,-.8,-9.6,-.8c-7.9,0,-10.3,1.5,-10.3,5.8c0,7.8,23.9,5.8,23.9,18.3c0,8.2,-3.8,11.1,-14,11.1c-3.4,0,-8.2,-.5,-11.8,-1.3c-.9,-.3,-1.6,-1.1,-1.6,-2.2c0,-1.1,.9,-2.2,2.2,-2.2c3.6,1,8.7,1.4,11.2,1.4Z" class="g1_1" />
<path d="M185.7,135.2c0,40.5,-32.8,73.3,-73.3,73.3C72,208.5,39.2,175.7,39.2,135.2C39.2,94.8,72,62,112.4,62c40.5,0,73.3,32.8,73.3,73.2Z" class="g0_1" />
<path d="M29,153.3v-8.1C27.1,145,23.5,145,22,145c-7.6,0,-14.4,0,-14.4,6.9c0,5.2,2.8,7.7,8.6,7.8c5.7,0,9.7,-2.8,12.8,-6.4M17.4,124.5c9.8,0,16.2,3.2,16.2,13.9v22.8c0,1.2,-1,2.3,-2.3,2.3c-1.2,0,-2.3,-1.1,-2.3,-2.3v-2.8c-3.9,4.9,-8.2,5.6,-12.7,5.6C7.1,164,3,161,3,152.1c0,-8.5,7.7,-11.4,15.1,-11.4c3.3,0,7.6,.7,10.2,1.8H29v-4.2c0,-7.2,-5.8,-9.5,-12.5,-9.5c-2.6,0,-4.9,.2,-7.2,.7c-.2,.1,-.5,.1,-.7,.1c-1.2,0,-2,-.9,-2,-2c0,-1.1,.7,-1.8,1.7,-2c3.1,-.7,6.3,-1.1,9.1,-1.1Z" class="g0_1" />
<path d="M51.2,115.8c0,-1.2,1,-2.3,2.3,-2.3c1.2,0,2.3,1.1,2.3,2.3V125h7.5c1.3,0,2.1,.9,2.1,2.2c0,1.3,-.8,2.1,-2.1,2.1H55.8v23c0,5.1,.4,6.9,6.5,6.9h1.1c1.2,0,2.1,.9,2.1,2.1c0,1.1,-.9,2.2,-2.1,2.2h-1c-8.4,0,-11.2,-2.4,-11.2,-11.2v-23H45.5c-1.2,0,-2.1,-.8,-2.1,-2.1c0,-1.3,.9,-2.2,2.1,-2.2h5.7Z" class="g1_1" />
<path d="M73.4,114.2c0,-1.3,1.1,-2.3,2.3,-2.3c1.3,0,2.4,1,2.4,2.3v47c0,1.2,-1.1,2.3,-2.4,2.3c-1.2,0,-2.3,-1.1,-2.3,-2.3Z" class="g1_1" />
<path d="M113.2,153.3v-8.1c-1.9,-.2,-5.5,-.2,-7,-.2c-7.6,0,-14.4,0,-14.4,6.9c0,5.2,2.8,7.7,8.6,7.8c5.7,0,9.7,-2.8,12.8,-6.4M101.5,124.5c9.9,0,16.3,3.2,16.3,13.9v22.8c0,1.2,-1,2.3,-2.3,2.3c-1.2,0,-2.3,-1.1,-2.3,-2.3v-2.8c-3.9,4.9,-8.2,5.6,-12.7,5.6c-9.3,0,-13.3,-3,-13.3,-11.9c0,-8.5,7.7,-11.4,15.1,-11.4c3.3,0,7.5,.7,10.2,1.8h.7v-4.2c0,-7.2,-5.8,-9.5,-12.5,-9.5c-2.6,0,-4.9,.2,-7.2,.7c-.2,.1,-.5,.1,-.7,.1c-1.2,0,-2,-.9,-2,-2c0,-1.1,.7,-1.8,1.7,-2c3.1,-.7,6.3,-1.1,9,-1.1Z" class="g1_1" />
<path d="M140,159.7c7.9,0,9.4,-1.9,9.4,-6.8c0,-8.5,-23.9,-6.1,-23.9,-18.3c0,-7.6,5.8,-10.1,14.7,-10.1c3,0,7.2,.3,10.4,1c.8,.3,1.5,1,1.5,2c0,1.1,-1,2.1,-2.1,2.1c-2.7,-.5,-6.5,-.8,-9.6,-.8c-7.9,0,-10.3,1.5,-10.3,5.8c0,7.8,23.9,5.8,23.9,18.3c0,8.2,-3.8,11.1,-14,11.1c-3.4,0,-8.2,-.5,-11.8,-1.3c-.9,-.3,-1.6,-1.1,-1.6,-2.2c0,-1.1,.9,-2.2,2.2,-2.2c3.6,1,8.7,1.4,11.2,1.4Z" class="g1_1" />
<path d="M161.7,91.2C166,81.8,190.8,74.9,190.8,74.9c0,0,-7.7,-4.4,-12.6,-3.2c4.2,-9.5,19.1,-6.6,22.1,-6.7c4.8,-.2,6.2,-6.7,6.2,-6.7c0,0,.9,-2.3,5.3,-3c-3.4,-2.4,-6.5,1,-8.1,1.6c-1.6,.6,-4.2,-.7,-3.8,-2.7c.4,-2,2,-1.5,2,-1.5c3.3,0,8,2.7,13.9,-5.4C220.7,40.5,226.1,40,226.1,40C240,38.6,244,23.7,244,23.7c-2.2,5.5,-9,6.8,-9,6.8c-9.6,0,-13.5,3.6,-13.5,3.6C234.4,23.5,232.7,21.7,232.7,21.7c0,0,-6.1,7.4,-24.6,6.1c21.1,-1.3,19.7,-13.3,19.7,-13.3c0,0,-.8,-4.4,6.9,-10.8c-5,0,-12,.7,-12.1,7.6c-1.4,8.7,-13,3,-13,3c0,0,-15,-6.1,-17.9,6.5c-2.9,12.7,-9.5,18,-12.9,14.1c-3.4,-3.9,.9,-8.5,.9,-8.5c0,0,-12.8,-.3,-17.6,9.1c-8.1,16,-28.5,24.3,-28.5,24.3c0,0,-44.4,15.2,-34.2,45.9c11,19.5,36,10.8,36,10.8c0,0,17,-4.7,26.3,-25.3Z" class="g2_1" />
<path d="M161.7,91.2C166,81.8,190.8,74.9,190.8,74.9c0,0,-7.7,-4.4,-12.6,-3.2c4.2,-9.5,19.1,-6.6,22.1,-6.7c4.8,-.2,6.2,-6.7,6.2,-6.7c0,0,.9,-2.3,5.3,-3c-3.4,-2.4,-6.5,1,-8.1,1.6c-1.6,.6,-4.2,-.7,-3.8,-2.7c.4,-2,2,-1.5,2,-1.5c3.3,0,8,2.7,13.9,-5.4C220.7,40.5,226.1,40,226.1,40C240,38.6,244,23.7,244,23.7c-2.2,5.5,-9,6.8,-9,6.8c-9.6,0,-13.5,3.6,-13.5,3.6C234.4,23.5,232.7,21.7,232.7,21.7c0,0,-6.1,7.4,-24.6,6.1c21.1,-1.3,19.7,-13.3,19.7,-13.3c0,0,-.8,-4.4,6.9,-10.8c-5,0,-12,.7,-12.1,7.6c-1.4,8.7,-13,3,-13,3c0,0,-15,-6.1,-17.9,6.5c-2.9,12.7,-9.5,18,-12.9,14.1c-3.4,-3.9,.9,-8.5,.9,-8.5c0,0,-12.8,-.3,-17.6,9.1c-8.1,16,-28.5,24.3,-28.5,24.3c0,0,-44.4,15.2,-34.2,45.9c11,19.5,36,10.8,36,10.8c0,0,17,-4.7,26.3,-25.3Z" class="g3_1" />
<path d="M192.5,40.6C182.6,43.3,103,76.5,105.7,97.3c1,14.4,12.4,15.1,12.4,15.1c0,0,14.2,2.7,21.6,-13.3c6.2,-13.7,11.1,-17,17.2,-18.7c6.1,-1.7,6.4,-4.2,6.4,-4.2c0,0,-8.6,1.5,0,-6.3c5.8,-5.3,23.9,-15.1,23.9,-15.1c0,0,-6.9,-1.2,5.3,-9.9c12.3,-8.7,26.8,-13.7,26.8,-13.7Z" class="g4_1" />

</svg>
